<?xml version="1.0" encoding="utf-8"?>
<!-- Generator: Adobe Illustrator 26.0.2, SVG Export Plug-In . SVG Version: 6.00 Build 0)  -->
<svg version="1.1" id="Layer_1" xmlns="http://www.w3.org/2000/svg" xmlns:xlink="http://www.w3.org/1999/xlink" x="0px" y="0px"
	 viewBox="0 0 60 60" style="enable-background:new 0 0 60 60;" xml:space="preserve">
<style type="text/css">
	.st0{fill:#F00000;}
</style>
<path class="st0" d="M31.2,58.4l26.5-26.5c1-1,1-2.7,0-3.8L31.2,1.6c-1-1-2.7-1-3.8,0l-6.2,6.2c-1,1-1,2.7,0,3.8L32.7,23H4.1
	c-1.5,0-2.7,1.2-2.7,2.7v8.8c0,1.5,1.2,2.7,2.7,2.7h28.6L21.3,48.5c-1,1-1,2.7,0,3.8l6.2,6.2C28.5,59.4,30.2,59.4,31.2,58.4z"/>
</svg>
